<svg width="737" height="263" viewBox="0 0 737 263" fill="none" xmlns="http://www.w3.org/2000/svg">
<path d="M5.92187 231.652C11.0527 230.411 133.751 229.807 139.786 231.057C141.511 231.414 142.828 232.628 143.757 234.076C145.491 236.781 146.196 240.458 145.36 243.581C144.514 246.75 142.372 248.588 139.651 250.184C114.845 260.231 78.1858 264.798 51.4375 261.707C40.9433 260.494 10.3204 256.104 1.81934 248.343C0.501002 247.139 -0.366561 241.106 0.152344 239.161C1.17196 235.335 2.66694 233.739 5.92187 231.652ZM110.641 196.259C118.343 196.23 127.796 195.915 135.251 196.479C130.531 209.548 131.074 213.175 133.841 226.572C126.28 227.081 117.027 226.909 109.36 226.951L68.6514 227.185L34.0547 227.389C26.9387 227.427 18.8505 227.687 11.8447 227.114C12.2503 224.641 13.6746 219.17 14.4492 216.65C16.8305 208.902 13.3527 203.677 13.2119 196.83C18.8787 196.125 28.5344 196.38 34.5342 196.378L70.0957 196.377L110.641 196.259ZM60.2861 180.285C84.9098 180.282 109.582 180.077 134.203 180.19C138.119 180.208 142.571 180.148 143.57 184.746C144.188 187.589 142.889 189.64 141.281 191.693C139.958 192.158 138.786 192.477 137.385 192.561C127.232 193.159 10.7052 193.53 8.01074 191.989C6.53714 191.147 5.45698 189.934 5.05664 188.262C4.42385 185.616 5.65793 183.392 7.14648 181.332C12.2415 179.694 51.5812 180.354 60.2861 180.285ZM172.768 81.878C183.001 79.5595 188.226 84.0562 190.248 93.7696C191.388 94.0366 192.517 94.3296 193.625 94.713C196.669 95.7679 199.786 97.507 201.146 100.604C203.047 104.93 201.794 157.956 199.743 162.096C197.919 165.779 193.846 167.03 190.208 168.127C188.874 174.18 187.85 176.368 182.447 179.405C171.455 182.132 165.477 179.549 162.885 168.319C161.205 167.863 159.43 167.498 157.85 166.754C155.775 165.777 153.717 164.112 153.034 161.838C151.483 156.671 152.752 102.365 154.946 98.8926C156.946 95.728 160.833 94.7601 164.213 93.8721C165.5 87.1533 166.305 84.8704 172.768 81.878ZM676.804 93.3028C685.138 90.6043 692.711 89.7984 701.354 91.67C713.031 94.1685 723.206 101.269 729.582 111.365C735.711 121.136 737.704 132.942 735.121 144.183C732.054 157.137 724.408 165.624 713.363 172.41C702.134 177.924 689.919 179.453 677.964 175.35C671.382 173.091 663.666 168.903 660.702 162.283C657.686 155.545 659.05 113.451 661.857 106.213C664.418 99.6106 670.581 95.8653 676.804 93.3028ZM56.8594 86.3594C81.3095 86.917 108.466 85.3782 132.6 86.4444C135.814 93.9361 137.821 95.6117 145.001 99.2549L143.369 162.06C135.984 166.534 134.934 168.318 132.505 176.184C128.195 176.761 120.543 176.579 116.074 176.585L88.418 176.607C66.9785 176.646 37.8879 177.544 16.8398 176.486C16.6322 175.877 16.4193 175.269 16.1992 174.663C13.7192 167.854 10.8061 165.892 4.58008 162.994C4.11029 144.2 5.03054 118.383 5.72559 99.3165C13.0636 95.7245 14.5457 93.8031 18.2861 86.8311C21.0257 86.1674 51.9559 86.2474 56.8594 86.3594ZM270.703 98.9258C276.039 97.6368 280.089 99.009 280.062 105.291C280.012 116.854 279.607 128.447 279.316 140.009C279.141 147 279.179 154.184 278.42 161.113C278.305 162.131 276.663 163.891 275.961 164.642C268.655 166.939 266.108 163.61 266.304 156.482C266.791 138.746 266.768 120.795 267.897 103.099C267.99 101.654 269.734 99.9272 270.703 98.9258ZM212.456 100.315C216.905 98.6323 222.064 100.053 222.079 105.427C222.116 119.56 221.433 133.772 221.02 147.91C220.847 153.798 221.797 159.333 217.923 163.882C217.222 164.104 216.507 164.279 215.782 164.408C211.756 165.127 208.238 162.647 208.278 158.446C208.451 140.64 208.849 122.715 209.741 104.934C209.823 103.313 211.445 101.494 212.456 100.315ZM647.562 101.664C652.432 101.298 654.272 104.1 654.444 108.664C654.656 114.241 654.319 119.847 654.125 125.425L653.24 153.829C653.042 159.565 650.092 167.268 642.465 161.923C640.151 160.302 640.34 156.265 640.343 153.532C629.174 152.804 613.276 153.318 601.826 153.313L527.755 153.296L284.185 152.991C283.872 142.766 283.967 120.99 285.396 111.395C290.851 110.554 313.263 111.113 320.09 111.146L389.24 111.286L641.644 111.686C641.899 107.489 642.146 102.12 647.562 101.664ZM226.324 110.315C231.676 110.205 259.669 109.71 262.73 111.357C263.823 114.309 262.89 149.41 261.911 152.969C256.77 153.413 228.733 153.668 225.328 152.007C224.147 148.694 225.188 114.166 226.324 110.315ZM114.384 70.1319C122.587 70.1034 130.796 69.9862 139.001 70.2686C142.117 70.3759 144.656 72.7011 144.755 75.8897C144.838 78.5702 143.948 79.8531 142.246 81.8243C137.643 83.2295 127.942 82.6584 122.818 82.6631L88.4668 82.6983L41.123 82.7901C32.5169 82.8045 23.7218 82.9392 15.1328 82.6505C13.06 82.4469 10.7499 82.6399 9.2002 81.0167C5.88106 77.5406 7.4832 74.0208 10.2021 70.9385C14.8285 69.8593 24.9956 70.3646 30.1904 70.3546L67.9814 70.2784L114.384 70.1319ZM115.85 33.8292C121.725 33.8072 130.871 33.5284 136.498 34.2452C133.179 46.632 134.314 53.4459 136.539 66.0684C130.645 66.6856 123.335 66.5175 117.296 66.5401L89.0811 66.6456C81.052 66.6728 19.7345 67.4244 17.0615 65.876C16.6815 64.1322 17.6146 60.8346 17.9629 58.8174C19.4229 50.359 18.423 42.8649 17.3086 34.4434C24.3233 33.9075 33.8899 34.1386 41.1182 34.1163L82.6035 33.9747L115.85 33.8292ZM40.2568 3.36823C69.6116 -1.86888 99.7316 -0.99097 128.731 5.94733C133.063 6.97187 140.737 8.72167 144.215 11.1485C150.068 15.2329 148.755 27.4189 141.494 29.5362C138.463 30.4207 134.793 30.2166 131.738 30.2559C118.437 30.1699 16.4623 31.79 11.7412 29.584C9.19468 28.3938 7.15413 26.2408 6.27441 23.5518C5.35096 20.7243 5.643 17.6408 7.08301 15.0381C10.063 9.66665 18.7578 8.36826 24.6221 6.83502C29.7908 5.49273 35.0061 4.33625 40.2568 3.36823Z" fill="#804012"/>
</svg>
