<svg width="737" height="263" viewBox="0 0 737 263" fill="none" xmlns="http://www.w3.org/2000/svg">
<path d="M5.92199 231.652C11.0529 230.411 133.752 229.807 139.786 231.057C141.511 231.414 142.828 232.628 143.757 234.076C145.491 236.781 146.196 240.458 145.36 243.581C144.514 246.75 142.372 248.588 139.651 250.184C114.845 260.231 78.1859 264.798 51.4376 261.707C40.9434 260.494 10.3205 256.104 1.81945 248.343C0.501112 247.139 -0.36645 241.106 0.152454 239.161C1.17207 235.335 2.66705 233.739 5.92199 231.652ZM110.641 196.259C118.343 196.23 127.796 195.915 135.251 196.479C130.531 209.548 131.075 213.175 133.841 226.572C126.281 227.081 117.027 226.909 109.36 226.951L68.6515 227.185L34.0548 227.389C26.9388 227.427 18.8506 227.687 11.8448 227.114C12.2505 224.641 13.6748 219.17 14.4493 216.65C16.8306 208.902 13.3528 203.677 13.212 196.83C18.8789 196.125 28.5345 196.38 34.5343 196.378L70.0958 196.377L110.641 196.259ZM60.2862 180.285C84.9099 180.282 109.583 180.077 134.203 180.19C138.12 180.208 142.571 180.148 143.57 184.746C144.189 187.589 142.889 189.64 141.281 191.693C139.959 192.158 138.786 192.477 137.385 192.561C127.232 193.159 10.7053 193.53 8.01085 191.989C6.53725 191.147 5.45709 189.934 5.05675 188.262C4.42396 185.616 5.65804 183.392 7.14659 181.332C12.2416 179.694 51.5814 180.354 60.2862 180.285ZM172.768 81.878C183.001 79.5595 188.226 84.0562 190.248 93.7696C191.389 94.0366 192.518 94.3296 193.625 94.713C196.669 95.7679 199.786 97.507 201.147 100.604C203.047 104.93 201.794 157.956 199.743 162.096C197.919 165.779 193.846 167.03 190.208 168.127C188.874 174.18 187.85 176.368 182.447 179.405C171.455 182.132 165.478 179.549 162.885 168.319C161.205 167.863 159.43 167.498 157.85 166.754C155.775 165.777 153.717 164.112 153.034 161.838C151.483 156.671 152.752 102.365 154.946 98.8926C156.946 95.728 160.834 94.7601 164.213 93.8721C165.5 87.1533 166.305 84.8704 172.768 81.878ZM676.804 93.3028C685.139 90.6043 692.711 89.7984 701.355 91.67C713.031 94.1685 723.206 101.269 729.582 111.365C735.711 121.136 737.704 132.942 735.121 144.183C732.054 157.137 724.408 165.624 713.363 172.41C702.134 177.924 689.919 179.453 677.964 175.35C671.382 173.091 663.666 168.903 660.702 162.283C657.686 155.545 659.05 113.451 661.858 106.213C664.418 99.6106 670.581 95.8653 676.804 93.3028ZM56.8595 86.3594C81.3096 86.917 108.466 85.3782 132.6 86.4444C135.815 93.9361 137.822 95.6117 145.001 99.2549L143.369 162.06C135.984 166.534 134.934 168.318 132.505 176.184C128.195 176.761 120.544 176.579 116.074 176.585L88.4181 176.607C66.9786 176.646 37.888 177.544 16.84 176.486C16.6323 175.877 16.4194 175.269 16.1993 174.663C13.7193 167.854 10.8062 165.892 4.58019 162.994C4.1104 144.2 5.03066 118.383 5.7257 99.3165C13.0637 95.7246 14.5458 93.8031 18.2862 86.8311C21.0258 86.1674 51.956 86.2474 56.8595 86.3594ZM270.703 98.9258C276.039 97.6368 280.09 99.009 280.063 105.291C280.012 116.854 279.607 128.447 279.317 140.009C279.142 147 279.179 154.184 278.42 161.113C278.305 162.131 276.663 163.891 275.961 164.642C268.655 166.939 266.108 163.61 266.304 156.482C266.791 138.746 266.768 120.795 267.898 103.099C267.99 101.654 269.734 99.9272 270.703 98.9258ZM212.456 100.315C216.905 98.6323 222.064 100.053 222.079 105.427C222.117 119.56 221.433 133.772 221.02 147.91C220.847 153.798 221.797 159.333 217.923 163.882C217.222 164.104 216.507 164.279 215.782 164.408C211.756 165.127 208.238 162.647 208.278 158.446C208.451 140.64 208.849 122.715 209.741 104.934C209.823 103.313 211.445 101.494 212.456 100.315ZM647.562 101.664C652.432 101.298 654.272 104.1 654.444 108.664C654.656 114.241 654.32 119.847 654.125 125.425L653.24 153.829C653.042 159.565 650.092 167.268 642.465 161.923C640.151 160.302 640.34 156.265 640.343 153.532C629.174 152.804 613.277 153.318 601.826 153.313L527.755 153.296L284.185 152.991C283.872 142.766 283.968 120.99 285.397 111.395C290.851 110.554 313.263 111.113 320.09 111.146L389.24 111.286L641.644 111.686C641.899 107.489 642.146 102.12 647.562 101.664ZM226.324 110.315C231.676 110.205 259.669 109.71 262.731 111.357C263.823 114.309 262.89 149.41 261.911 152.969C256.771 153.413 228.733 153.668 225.328 152.007C224.147 148.694 225.188 114.166 226.324 110.315ZM114.384 70.1319C122.588 70.1034 130.796 69.9862 139.001 70.2686C142.117 70.3759 144.656 72.7011 144.755 75.8897C144.838 78.5702 143.948 79.8531 142.246 81.8243C137.643 83.2295 127.943 82.6584 122.818 82.6632L88.4669 82.6983L41.1232 82.7901C32.517 82.8045 23.7219 82.9392 15.1329 82.6505C13.0601 82.4469 10.75 82.6399 9.20031 81.0167C5.88117 77.5406 7.48331 74.0208 10.2023 70.9385C14.8286 69.8593 24.9957 70.3646 30.1905 70.3546L67.9816 70.2784L114.384 70.1319ZM115.85 33.8292C121.725 33.8072 130.871 33.5284 136.498 34.2452C133.179 46.632 134.314 53.4459 136.539 66.0684C130.646 66.6856 123.335 66.5175 117.296 66.5401L89.0812 66.6456C81.0521 66.6728 19.7346 67.4244 17.0616 65.876C16.6816 64.1322 17.6147 60.8346 17.963 58.8174C19.4231 50.359 18.4232 42.8649 17.3087 34.4434C24.3234 33.9075 33.89 34.1386 41.1183 34.1163L82.6036 33.9747L115.85 33.8292ZM40.2569 3.36823C69.6118 -1.86888 99.7318 -0.990966 128.732 5.94733C133.063 6.97187 140.738 8.72167 144.215 11.1485C150.068 15.2329 148.755 27.4189 141.494 29.5362C138.463 30.4207 134.794 30.2166 131.738 30.2559C118.437 30.1699 16.4624 31.79 11.7413 29.584C9.19479 28.3938 7.15424 26.2408 6.27452 23.5518C5.35107 20.7243 5.64311 17.6408 7.08312 15.0382C10.0632 9.66666 18.7579 8.36826 24.6222 6.83503C29.7909 5.49273 35.0062 4.33625 40.2569 3.36823Z" fill="#083455"/>
</svg>
