<svg width="427" height="177" viewBox="0 0 427 177" fill="none" xmlns="http://www.w3.org/2000/svg">
<path d="M101.361 0C104.184 5.772 106.813 12.1765 109.555 18.0537C117.886 35.914 125.694 54.5757 134.344 72.248C140.261 72.2688 181.614 71.8392 183.08 72.751C183.983 73.3138 184.311 75.2694 184.456 76.2588C184.604 77.2671 184.479 78.3995 183.731 79.1602C182.311 80.6054 177.029 80.3745 173.432 80.2041C175.007 83.5673 176.97 88.6381 178.007 91.1426L186.891 112.521L194.278 127.549C195.639 128.454 197.115 128.542 197.944 129.752C197.95 129.848 197.957 129.927 197.964 129.994C197.967 129.996 197.97 129.998 197.974 129.999C198.201 130.351 198.49 130.616 198.42 131.032C196.389 143.106 180.339 149.38 170.207 150.084C173.923 160.354 179.332 168.815 190.725 170.976C192.421 171.297 194.091 171.541 195.782 171.902C195.794 173.348 195.618 174.703 195.47 176.14C189.713 176.155 135.023 176.509 134.439 175.845C133.573 174.855 133.802 172.594 133.782 171.334C137.697 170.981 144.512 170.566 145.651 165.846C146.085 164.048 146.134 161.192 145.496 159.424C143.384 153.567 140.69 147.883 138.037 142.254C134.594 135.011 131.223 127.734 127.925 120.424L116.279 94.5439C114.577 90.751 111.605 83.6276 109.655 80.3369C106.828 79.2056 105.579 82.0569 104.106 84.125C103.988 101.475 104.595 118.64 105.149 135.989C105.4 143.829 105.28 152.385 106.208 160.245C106.39 161.783 107.216 163.404 108.274 164.53C112.69 169.229 115.603 171.062 121.889 171.656L122.862 176.156C112.579 176.286 102.033 176.083 91.7354 176.162C89.2285 176.181 76.5907 176.37 75.0576 175.885C71.6995 169.684 91.5969 172.426 91.9199 159.602C92.1055 152.238 92.301 140.936 92.4688 133.258L93.1123 104.865C93.3152 97.9155 93.6722 91.4001 93.6221 84.4268C93.5222 83.868 91.6074 81.1846 91.1338 80.4658C71.9158 80.0434 52.6924 79.9292 33.4707 80.123C38.0074 89.7514 42.1818 99.496 46.6602 109.137C50.1877 101.956 53.4427 94.0828 56.9346 86.7715C60.7717 86.8734 64.708 86.8004 68.5547 86.7734C63.4399 99.2926 58.2489 111.781 52.9805 124.236L55.4062 129.642C56.3226 129.613 57.239 129.592 58.1553 129.579C59.5852 129.565 59.8195 129.514 60.75 130.43C61.886 134.599 56.0257 140.714 53.0146 143.125C49.5149 145.927 45.5711 147.51 41.5947 149.46C34.8251 163.794 45.582 169.333 57.5361 171.725L57.4893 176.146L2.47461 176.161C2.54957 174.728 2.71874 173.093 2.83594 171.646C16.1922 169.697 22.784 162.542 27.4707 150.133C21.2688 149.337 14.8918 147.5 9.53809 144.165C6.54785 142.302 -2.40397 133.496 0.612305 129.885C1.95894 129.443 3.4907 129.612 4.94336 129.65L26.8359 80.1221C24.5293 80.0836 16.1036 80.7987 13.9941 79.2852C13.2384 78.7428 13.3439 73.6083 14.7324 72.9668C14.8794 72.8984 15.4418 72.3982 15.6318 72.4062C23.0178 72.1743 30.4508 72.4601 37.8467 72.4746L90.8691 72.2764C93.6408 66.0751 97.5423 65.5584 103.672 67.3828C99.0896 57.4157 95.4096 46.6166 90.7686 36.7344C87.2091 45.7213 82.2041 56.4726 78.3047 65.5498L66.2637 65.5381L86.8682 20.043L92.5908 7.29199C93.4948 5.27159 94.4667 3.10658 95.4473 1.10645C95.8771 0.230165 96.3182 0.369011 97.3535 0.161133C98.6363 0.0704667 100.064 0.0492699 101.361 0ZM282.647 144.588C285.506 144.404 289.846 145.658 292.658 146.423C292.689 148.031 292.896 152.5 292.694 153.713L292.441 153.78C291.859 153.304 291.574 152.505 291.165 151.862C289.032 148.453 285.415 145.94 281.228 146.916C272.031 149.06 271.766 166.842 279.493 170.846C282.294 172.296 284.951 171.962 287.881 171.109C287.876 169.531 287.875 167.805 287.959 166.244C288.14 162.873 287.569 161.989 284.531 160.946C284.743 160.456 284.652 160.609 284.988 160.207C285.904 159.901 295.863 159.903 296.319 160.391C295.981 161.037 294.702 161.879 294.058 162.366C293.532 163.342 293.829 169.633 293.86 171.186C291.21 172.56 288.338 173.455 285.376 173.829C271.383 175.583 262.389 162.207 270.661 150.162C273.178 146.498 278.357 145.026 282.647 144.588ZM318.826 145.096C320.658 150.25 323.059 155.652 325.013 160.816C326.318 163.952 327.418 167.205 328.946 170.239C329.493 171.324 331.218 171.886 331.53 172.96L331.299 173.311C328.809 173.551 322.936 173.433 320.251 173.297C320.056 173.288 320.018 173.076 319.904 172.85C320.494 171.459 323.05 171.82 321.779 168.814C321.223 167.497 320.792 165.775 319.839 164.602C319.66 164.381 319.121 164.431 318.844 164.414C315.967 164.428 313.09 164.425 310.213 164.408C309.531 166.052 307.613 169.806 308.506 171.364C309.401 171.733 310.259 171.903 310.293 173.017C309.55 173.648 303.173 173.554 302.319 173.056C302.29 172.353 305.127 170.551 305.654 169.265C306.659 166.808 307.67 164.272 308.655 161.827L315.371 145.099L318.826 145.096ZM337.53 145.311C339.065 145.211 348.931 145.031 349.664 145.572L349.704 145.917C348.893 147.072 346.735 146.556 346.617 149.2C346.51 151.622 346.559 154.061 346.557 156.486V171.169C354.009 171.291 355.423 171.837 359.586 165.442C359.742 165.205 359.937 165.318 360.197 165.363C360.489 166.125 360.391 165.922 360.246 166.843C359.77 168.894 359.344 171.215 358.922 173.3C356.596 173.322 338.503 173.512 337.745 173.033C337.775 172.096 340.647 171.214 340.675 170.288C340.869 163.035 341.065 155.455 340.548 148.222C340.447 146.81 338.124 147.227 337.53 145.311ZM210.131 145.267C212.023 145.254 220.339 145.08 221.688 145.411L221.848 145.788C221.071 147.075 219.184 146.626 219.17 148.832C219.155 151.068 219.173 153.323 219.177 155.559C219.216 160.758 219.204 165.957 219.141 171.153C224.344 171.202 229.566 171.926 231.388 165.954C231.515 165.538 232.164 165.339 232.536 165.251L232.833 165.504C232.941 166.515 232.768 167 232.549 167.985C232.167 169.835 231.867 171.409 231.601 173.287C227.284 173.381 222.777 173.27 218.441 173.315C216.596 173.335 212.175 173.417 210.522 173.19L210.246 172.822L210.371 172.395C211.698 171.576 213.299 171.697 213.368 169.604C213.542 163.801 213.423 157.655 213.428 151.887C213.43 148.597 213.769 147.579 210.638 146.292C210.167 146.099 210.239 145.769 210.131 145.267ZM238.866 145.305C240.898 145.15 244.073 145.243 246.169 145.244L259.559 145.26C259.555 146.769 260.093 150.982 259.388 151.997L259.053 151.988C258.273 151.283 258.179 149.836 257.13 148.774C255.085 146.705 250.519 147.213 247.673 147.248C247.746 150.828 247.73 154.477 247.749 158.063C249.36 158.069 252.577 158.228 254.122 157.944C254.91 157.802 255.896 155.584 257.027 155.235L257.257 155.596C257.36 156.804 257.729 162.831 256.796 163.345C256.18 162.962 255.57 161.373 255.115 160.908C254.086 159.854 249.347 160.189 247.722 160.197L247.731 162.902L247.735 171.159C251.1 171.165 256.289 171.895 258.244 169.267C258.834 168.473 260.375 166.64 261.064 166.158L261.403 166.224C261.817 167.434 260.688 171.482 260.457 173.307C254.2 173.307 247.94 173.332 241.683 173.338C240.87 173.338 239.691 173.408 239.146 172.808C239.624 171.867 241.061 171.708 241.625 170.748C242.122 169.902 242.162 150.085 241.723 148.39C241.248 146.564 239.404 147.033 238.866 145.305ZM315.146 151.67C313.815 155.2 312.434 158.714 311.004 162.207L315.509 162.198L319.229 162.204C318.687 160.748 315.627 152.104 315.146 151.67ZM266.863 83.0527C271.749 82.7292 276.98 83.9425 281.583 85.4971C281.568 87.2594 282.68 96.2515 281.218 96.5029C279.699 95.6941 278.778 92.4849 277.521 91.04C275.261 88.4458 272.732 86.4467 269.162 86.1016C266.56 85.85 264.184 86.397 262.141 88.0498C260.829 89.1103 260.018 90.7234 259.927 92.4287C259.412 102.11 276.386 102.581 281.462 109.387C283.707 112.397 284.627 114.543 284.324 118.364C284.011 122.325 282.522 124.718 279.682 127.23C276.455 130.085 268.876 131.932 264.82 131.51C259.513 130.954 256.383 130.329 251.34 128.25C251.278 126.164 249.913 117.029 250.967 115.987C252.392 116.121 253.778 120.245 254.836 121.83C255.726 123.172 256.809 124.376 258.05 125.402C262.559 129.124 270.314 130.082 274.543 125.181C275.696 123.845 276.33 121.238 275.975 119.475C274.92 114.234 268.497 112.51 264.354 110.43C259.426 108.132 253.21 104.77 252.351 98.709C250.978 89.019 258.417 84.1592 266.863 83.0527ZM214.048 83.876C221.516 83.859 230.91 83.2706 235.847 90.3184C237.955 93.3286 237.854 98.2963 236.333 101.575C234.577 105.358 230.831 107.314 227.066 108.61C231.149 114.528 234.637 121.462 239.344 126.914C240.868 128.679 243.974 128.709 244.534 129.25C244.553 130.102 244.685 129.755 244.257 130.37C243.379 130.766 242.505 130.553 241.551 130.599C236.281 130.851 232.643 131.042 228.659 127.016C226.891 124.96 225.271 122.129 223.822 119.778L217.708 109.828L213.058 109.837C213.043 114.988 212.742 120.898 213.321 126.03C213.591 128.413 217.774 128.168 217.871 130.219C217.127 130.623 213.208 130.639 212.294 130.558C210.239 130.373 199.563 130.968 198.777 130.154C198.678 128.511 202.005 128.716 202.826 126.762C204.04 123.873 203.608 119.013 203.551 115.854C203.334 106.694 204.022 97.3003 203.2 88.2041C202.971 85.6699 198.939 86.8265 198.691 83.9121L214.048 83.876ZM322.971 84.5635C324.112 83.2072 337.739 84.3813 340.382 83.9492C340.976 83.8524 342.73 84.0375 343.296 84.2871L343.379 84.9053C342.408 86.0665 338.343 86.2023 338.206 88.4248C337.501 99.9385 337.951 111.801 337.959 123.343C337.964 129.945 341.95 127.43 343.643 130.082C343.009 130.745 342.994 130.562 341.881 130.629C339.579 130.624 324.838 130.791 323.534 130.455C323.187 129.904 323.233 129.925 323.25 129.262C324.669 128.804 327.854 127.832 328.108 126.196C329 120.458 328.532 113.931 328.623 108.109L305.422 108.113C305.458 111.826 305.46 115.541 305.425 119.254C305.42 121.535 305.073 124.965 306.182 126.978C307.125 128.689 310.888 128.535 310.735 130.331C309.498 130.807 292.91 130.723 290.907 130.539C290.453 130.166 290.652 130.344 290.396 129.697C290.86 128.547 292.798 128.797 293.82 128.181C294.732 127.631 295.37 126.842 295.623 125.8C296.246 123.238 296.257 92.9767 295.817 89.7158C295.669 88.6142 295.259 87.8356 294.704 86.8926C293.17 85.963 292.43 85.9769 290.775 85.3955C290.274 84.8371 290.439 84.943 290.38 83.9873L303.255 83.9561C305.182 83.9529 308.659 83.8454 310.48 84.0791L310.66 84.4199C310.654 84.6686 310.646 84.9615 310.638 85.2979C309.188 85.9223 307.626 85.9913 306.446 87.2002C306.007 87.6152 305.766 88.1771 305.678 88.7705C305.314 91.2129 305.439 93.6745 305.44 96.1436C305.442 98.9918 305.447 101.851 305.436 104.705L328.604 104.698C328.464 100.72 328.648 95.0552 328.553 91.0713C328.395 84.4491 322.78 86.4924 322.971 84.5635ZM412.308 84.7891C412.806 83.7586 415.096 83.847 416.155 83.9844C418.294 84.2606 424.545 83.5968 426.239 84.1172C426.639 84.7052 426.495 84.6416 426.48 85.5205C425.738 85.7081 424.905 85.9102 424.205 86.2119C423.055 86.7066 422.086 87.5471 421.432 88.6172C420.247 90.5465 416.756 99.9101 415.719 102.521L404.414 130.664L398.212 130.668L386.989 103.156C385.915 100.499 384.79 97.6524 383.759 95.1826C381.914 90.7551 381.146 87.0892 376.12 85.4326C375.665 85.2816 375.732 84.438 375.704 83.9971L384.952 83.9883C387.287 83.9869 389.624 83.9768 391.956 83.9912C392.922 83.9971 394.569 83.8063 395.234 84.4707C394.88 86.7064 389.876 85.5823 391.567 89.876C392.95 93.378 394.415 96.9836 395.846 100.473L404.423 121.284C408.676 111.443 412.602 100.903 416.099 90.7324C417.614 86.3284 413.133 86.0807 412.308 84.7891ZM350.053 84.0762C351.714 83.8549 354.881 83.9483 356.707 83.9531L367.824 83.9766C368.855 83.9955 368.768 83.8321 369.487 84.3086L369.683 84.7695C369.255 85.7353 369.025 85.6589 367.997 85.6826C364.962 86.708 364.304 87.7555 364.296 91.1699C364.282 96.9941 364.097 101.922 364.244 107.906C364.384 113.58 363.728 120.932 364.806 126.549C365.032 127.725 367.167 128.777 368.388 128.813C369.348 129.024 369.13 128.832 369.702 129.444C369.75 130.732 368.801 130.655 367.826 130.615L355.698 130.635C353.961 130.636 351.986 130.678 350.245 130.539C349.866 130.509 349.789 130.221 349.643 129.942C350.291 128.119 353.912 128.878 354.454 126.152C355.103 122.888 354.997 119.736 354.965 116.434C354.879 107.59 355.158 98.7189 354.8 89.8867C354.607 85.375 350.874 86.4036 349.651 85.0342C349.71 84.3588 349.61 84.6775 350.053 84.0762ZM29.9922 85.5615C24.0292 97.9244 18.8752 110.837 13.0732 123.291C12.1195 125.338 11.1074 127.557 10.2949 129.657L24.168 129.643L37.5254 129.657L43.6152 115.535C42.1919 112.4 30.8331 86.3967 29.9922 85.5615ZM156.486 113.811C155.931 115.121 155.322 116.495 154.736 117.883C156.564 121.814 158.601 125.832 160.243 129.638L173.837 129.645H175.277C178.061 127.514 181.676 128.126 179.481 122.951C178.227 119.995 176.957 116.801 175.73 113.823H172.655L156.486 113.811ZM157.706 110.409L166.483 110.422C169.153 110.407 171.922 110.357 174.583 110.385C173.673 108.12 166.368 89.3662 166.067 89.1084L157.706 110.409ZM163.81 80.1152C155.369 80.1052 146.207 79.9213 137.855 80.1396C142.094 89.9386 146.534 100.488 151.016 110.146L154.903 101.302C157.965 94.4718 160.98 87.6207 163.951 80.751C163.911 80.5412 163.862 80.328 163.81 80.1152ZM224.929 88.7275C222.064 86.1915 216.781 86.7594 213.146 86.8115C212.959 88.1554 213.039 89.5327 213.029 90.8867C212.989 96.2659 213.116 101.65 213.036 107.028C218.047 107.068 221.343 107.561 225.462 104.325C229.107 99.914 229.548 92.817 224.929 88.7275Z" fill="#07273F"/>
</svg>
